<?xml version="1.0" encoding="UTF-8" standalone="no"?>
<!-- Created with Inkscape (http://www.inkscape.org/) -->

<svg
   xmlns:dc="http://purl.org/dc/elements/1.1/"
   xmlns:cc="http://creativecommons.org/ns#"
   xmlns:rdf="http://www.w3.org/1999/02/22-rdf-syntax-ns#"
   xmlns:svg="http://www.w3.org/2000/svg"
   xmlns="http://www.w3.org/2000/svg"
   xmlns:sodipodi="http://sodipodi.sourceforge.net/DTD/sodipodi-0.dtd"
   xmlns:inkscape="http://www.inkscape.org/namespaces/inkscape"
   width="400"
   height="300"
   id="svg2"
   version="1.1"
   inkscape:version="0.48.4 r9939"
   sodipodi:docname="venn_diagram_example.svg">
  <defs
     id="defs4" />
  <sodipodi:namedview
     id="base"
     pagecolor="#ffffff"
     bordercolor="#666666"
     borderopacity="1.0"
     inkscape:pageopacity="0.0"
     inkscape:pageshadow="2"
     inkscape:zoom="1.7933333"
     inkscape:cx="200"
     inkscape:cy="150"
     inkscape:document-units="px"
     inkscape:current-layer="layer1"
     showgrid="false"
     inkscape:window-width="1280"
     inkscape:window-height="751"
     inkscape:window-x="0"
     inkscape:window-y="25"
     inkscape:window-maximized="1" />
  <metadata
     id="metadata7">
    <rdf:RDF>
      <cc:Work
         rdf:about="">
        <dc:format>image/svg+xml</dc:format>
        <dc:type
           rdf:resource="http://purl.org/dc/dcmitype/StillImage" />
        <dc:title />
      </cc:Work>
    </rdf:RDF>
  </metadata>
  <g
     inkscape:label="Layer 1"
     inkscape:groupmode="layer"
     id="layer1"
     transform="translate(0,-752.36218)">
    <path
       sodipodi:type="arc"
       style="fill:none;stroke:#000000;stroke-width:1;stroke-miterlimit:4;stroke-opacity:1;stroke-dasharray:none;stroke-dashoffset:0"
       id="path2985"
       sodipodi:cx="126.85873"
       sodipodi:cy="80.297401"
       sodipodi:rx="106.22677"
       sodipodi:ry="56.319702"
       d="m 233.08549,80.297401 c 0,31.104509 -47.55934,56.319699 -106.22676,56.319699 -58.667428,0 -106.226772,-25.21519 -106.226772,-56.319699 0,-31.104512 47.559344,-56.319702 106.226772,-56.319702 58.66742,0 106.22676,25.21519 106.22676,56.319702 z"
       transform="translate(-6.6914498,780.80084)" />
    <path
       transform="translate(156.41264,778.57035)"
       sodipodi:type="arc"
       style="fill:none;stroke:#000000;stroke-width:1;stroke-miterlimit:4;stroke-opacity:1;stroke-dasharray:none;stroke-dashoffset:0"
       id="path2985-8"
       sodipodi:cx="126.85873"
       sodipodi:cy="80.297401"
       sodipodi:rx="106.22677"
       sodipodi:ry="56.319702"
       d="m 233.08549,80.297401 c 0,31.104509 -47.55934,56.319699 -106.22676,56.319699 -58.667428,0 -106.226772,-25.21519 -106.226772,-56.319699 0,-31.104512 47.559344,-56.319702 106.226772,-56.319702 58.66742,0 106.22676,25.21519 106.22676,56.319702 z" />
    <path
       transform="translate(88.382913,847.71533)"
       sodipodi:type="arc"
       style="fill:none;stroke:#000000;stroke-width:1;stroke-miterlimit:4;stroke-opacity:1;stroke-dasharray:none;stroke-dashoffset:0"
       id="path2985-8-1"
       sodipodi:cx="126.85873"
       sodipodi:cy="80.297401"
       sodipodi:rx="106.22677"
       sodipodi:ry="56.319702"
       d="m 233.08549,80.297401 c 0,31.104509 -47.55934,56.319699 -106.22676,56.319699 -58.667428,0 -106.226772,-25.21519 -106.226772,-56.319699 0,-31.104512 47.559344,-56.319702 106.226772,-56.319702 58.66742,0 106.22676,25.21519 106.22676,56.319702 z" />
    <path
       transform="matrix(0.92148909,0,0,0.92148909,3.2683441,787.10506)"
       style="fill:#ffff93;stroke:none;stroke-width:1;stroke-miterlimit:4;stroke-opacity:1;stroke-dashoffset:0;fill-opacity:1"
       d="m 188.74953,92.53367 c -50.47253,12.46984 -60.26656,25.09145 -73.8125,43.75564 -55.065173,-3.04637 -97.935855,-26.95251 -97.935855,-55.991909 0,-31.104512 49.184901,-56.319702 109.857555,-56.319702 30.73092,0 58.5147,6.468854 78.45292,16.895331 -16.88278,14.805368 -25.69217,36.253237 -16.56212,51.66064 z"
       id="path2985-9"
       inkscape:connector-curvature="0"
       sodipodi:nodetypes="ccsscc" />
    <path
       transform="matrix(0.96206538,0,0,0.94102476,93.19525,852.45089)"
       style="fill:#ff7c93;fill-opacity:1;stroke:none"
       d="m 233.08549,80.297401 c 0,31.104509 -47.55934,56.319699 -106.22676,56.319699 -58.667428,0 -106.226772,-25.21519 -106.226772,-56.319699 0,-3.147698 0.197248,-6.827652 1.423379,-9.242129 13.242817,0.550528 56.687766,0.929319 92.631623,-21.893448 36.88252,21.55092 90.96474,21.22566 115.69681,18.103977 0,0 2.70172,7.994855 2.70172,13.0316 z"
       id="path2985-8-1-6"
       inkscape:connector-curvature="0"
       sodipodi:nodetypes="ssscccs" />
    <path
       transform="matrix(0.9583633,0,0,0.9583633,161.69462,781.91367)"
       style="fill:#9aa9db;stroke:none;stroke-width:1;stroke-miterlimit:4;stroke-opacity:1;stroke-dashoffset:0;fill-opacity:1"
       d="m 234.83103,80.297401 c 0,24.075499 -31.11142,45.204519 -71.19444,53.261569 C 155.13423,114.96479 118.38226,93.364653 68.634336,91.352494 72.125418,80.321446 71.683217,60.824 45.026579,44.38463 64.51121,31.918471 93.93589,23.977699 126.85873,23.977699 c 58.66742,0 107.9723,25.21519 107.9723,56.319702 z"
       id="path2985-8-5"
       inkscape:connector-curvature="0"
       sodipodi:nodetypes="scccss" />
    <path
       style="fill:#b2fcbd;stroke:none;stroke-width:1px;stroke-linecap:butt;stroke-linejoin:miter;stroke-opacity:1;fill-opacity:1"
       d="M 200.04647,73.466543 C 177.0769,90.757109 175.964,106.06768 182.0632,120.72491 c 13.23921,-2.24476 26.64373,-3.93851 40.98513,-2.5093 4.0894,-15.42021 -1.11792,-30.441996 -23.00186,-44.749067 z"
       id="path3848"
       inkscape:connector-curvature="0"
       transform="translate(0,752.36218)"
       sodipodi:nodetypes="cccc" />
    <path
       style="fill:#ffd47f;stroke:none;stroke-width:1px;stroke-linecap:butt;stroke-linejoin:miter;stroke-opacity:1;fill-opacity:1"
       d="m 113.61524,162.96468 c 39.87086,1.52131 69.46029,-8.46743 86.71004,-19.23791 -16.2178,-11.58533 -14.95094,-13.88193 -20.49257,-19.79554 -40.84767,8.91082 -57.51719,23.10193 -66.21747,39.03345 z"
       id="path3850"
       inkscape:connector-curvature="0"
       transform="translate(0,752.36218)"
       sodipodi:nodetypes="cccc" />
    <path
       style="fill:#e7b5e2;stroke:none;stroke-width:1px;stroke-linecap:butt;stroke-linejoin:miter;stroke-opacity:1;fill-opacity:1"
       d="m 225.53815,120.98895 c 59.91991,5.43727 80.44152,25.01406 89.70267,38.04971 -36.53823,4.75579 -72.58854,2.91936 -109.12677,-15.36564 10.82395,-7.712 16.36783,-14.50929 19.4241,-22.68407 z"
       id="path3852"
       inkscape:connector-curvature="0"
       transform="translate(0,752.36218)"
       sodipodi:nodetypes="cccc" />
    <path
       style="fill:#bc9d60;stroke:none;stroke-width:1px;stroke-linecap:butt;stroke-linejoin:miter;stroke-opacity:1;fill-opacity:1"
       d="m 183.34832,123.15759 c 14.54402,-2.50796 27.12714,-2.61924 39.33117,-2.26721 -4.04258,8.01116 -10.51435,15.02206 -19.02485,21.19349 -8.31362,-4.76392 -15.14681,-11.00825 -20.30632,-18.92628 z"
       id="path3854"
       inkscape:connector-curvature="0"
       transform="translate(0,752.36218)"
       sodipodi:nodetypes="cccc" />
    <flowRoot
       xml:space="preserve"
       id="flowRoot3856"
       style="font-size:20px;font-style:normal;font-weight:normal;text-align:center;line-height:125%;letter-spacing:0px;word-spacing:0px;text-anchor:middle;fill:#000000;fill-opacity:1;stroke:none;font-family:Sans"
       transform="translate(5.5762082,757.38077)"><flowRegion
         id="flowRegion3858"><rect
           id="rect3860"
           width="65.799255"
           height="56.319702"
           x="70.817841"
           y="78.066917" /></flowRegion><flowPara
         id="flowPara3862"
         style="font-size:28px">A</flowPara></flowRoot>    <flowRoot
       xml:space="preserve"
       id="flowRoot3856-1"
       style="font-size:20px;font-style:normal;font-weight:normal;text-align:center;line-height:125%;letter-spacing:0px;word-spacing:0px;text-anchor:middle;fill:#000000;fill-opacity:1;stroke:none;font-family:Sans"
       transform="translate(102.04333,846.74545)"><flowRegion
         id="flowRegion3858-0"><rect
           id="rect3860-2"
           width="65.799255"
           height="56.319702"
           x="70.817841"
           y="78.066917" /></flowRegion><flowPara
         id="flowPara3862-5"
         style="font-size:28px">B</flowPara></flowRoot>    <flowRoot
       xml:space="preserve"
       id="flowRoot3856-14"
       style="font-size:20px;font-style:normal;font-weight:normal;text-align:center;line-height:125%;letter-spacing:0px;word-spacing:0px;text-anchor:middle;fill:#000000;fill-opacity:1;stroke:none;font-family:Sans"
       transform="translate(189.03218,750.27705)"><flowRegion
         id="flowRegion3858-4"><rect
           id="rect3860-23"
           width="65.799255"
           height="56.319702"
           x="70.817841"
           y="78.066917" /></flowRegion><flowPara
         id="flowPara3862-8"
         style="font-size:28px">C</flowPara></flowRoot>  </g>
</svg>
